<svg xmlns="http://www.w3.org/2000/svg" width="38" height="38" viewBox="0 0 38 38">
  <g id="Icon" transform="translate(-0.411)">
    <g id="Icon.BG" transform="translate(0.411)" fill="#fff" stroke="#a3a1fb" stroke-width="1">
      <circle cx="19" cy="19" r="19" stroke="none"/>
      <circle cx="19" cy="19" r="18.5" fill="none"/>
    </g>
    <path id="cart-icon" d="M11.014,14a2,2,0,1,1,2,2A2,2,0,0,1,11.014,14Zm-10,0a2,2,0,1,1,2,2A2,2,0,0,1,1.014,14ZM0,11V9H12.261l1.427-5H2.014V2h-2V0h3a1,1,0,0,1,1,1V2h11a1.021,1.021,0,0,1,.961,1.275l-2,7a1,1,0,0,1-.962.725ZM1,8V7H5V8ZM2,6V5H6V6Z" transform="translate(11.411 11)" fill="#a4a1fb"/>
  </g>
</svg>
